<?xml version="1.0" encoding="UTF-8"?>
<svg version="1.1" xmlns="http://www.w3.org/2000/svg" width="225" height="225">
<path d="M0 0 C74.25 0 148.5 0 225 0 C225 74.25 225 148.5 225 225 C150.75 225 76.5 225 0 225 C0 150.75 0 76.5 0 0 Z " fill="#656565" transform="translate(0,0)"/>
<path d="M0 0 C19.47 0 38.94 0 59 0 C59.495 1.485 59.495 1.485 60 3 C60.474375 3.433125 60.94875 3.86625 61.4375 4.3125 C63.58625458 6.63315495 64.07304349 8.98739135 65 12 C65.495 13.0725 65.99 14.145 66.5 15.25 C68.10723416 18.89252567 68.80690872 22.56059698 69.47265625 26.47265625 C70.07820754 29.37481687 71.06249114 32.18747342 72 35 C52.2 35 32.4 35 12 35 C13.65 33.02 15.3 31.04 17 29 C17.79623226 26.52242371 17.79623226 26.52242371 17.8125 24.0625 C17.88017578 22.77666016 17.88017578 22.77666016 17.94921875 21.46484375 C17.96597656 20.65144531 17.98273438 19.83804687 18 19 C18.04125 17.72125 18.0825 16.4425 18.125 15.125 C18.09895625 11.81905143 18.09895625 11.81905143 17 8 C25.58 7.67 34.16 7.34 43 7 C43.33 6.34 43.66 5.68 44 5 C43.13197754 5.01571045 42.26395508 5.0314209 41.36962891 5.04760742 C38.15301713 5.09869555 34.93661187 5.13633027 31.71972656 5.16479492 C30.32675378 5.17989358 28.93382862 5.20037444 27.54101562 5.22631836 C25.54057115 5.26265122 23.53978173 5.27811192 21.5390625 5.29296875 C19.73236084 5.31653442 19.73236084 5.31653442 17.88916016 5.34057617 C16.9357373 5.22818604 15.98231445 5.1157959 15 5 C14.34 4.01 13.68 3.02 13 2 C9.88389446 1.41407366 9.88389446 1.41407366 6.375 1.3125 C5.18648438 1.24675781 3.99796875 1.18101563 2.7734375 1.11328125 C1.85820313 1.07589844 0.94296875 1.03851563 0 1 C0 0.67 0 0.34 0 0 Z " fill="#909090" transform="translate(118,8)"/>
<path d="M0 0 C12.87 0 25.74 0 39 0 C38.01 1.32 37.02 2.64 36 4 C32.44784485 11.69633616 31.85930035 20.35572286 33.875 28.5625 C34.88116378 31.11163402 34.88116378 31.11163402 37 33 C23.8 33 10.6 33 -3 33 C-7.46946145 22.57125662 -7.95013822 14.79704448 -4 4 C-3.34 4 -2.68 4 -2 4 C-2 3.34 -2 2.68 -2 2 C-1.34 2 -0.68 2 0 2 C0 1.34 0 0.68 0 0 Z " fill="#080808" transform="translate(126,9)"/>
</svg>
